<?xml version="1.0" encoding="UTF-8" standalone="no"?>
<!-- Created with Inkscape (http://www.inkscape.org/) -->

<svg
   xmlns:dc="http://purl.org/dc/elements/1.1/"
   xmlns:cc="http://creativecommons.org/ns#"
   xmlns:rdf="http://www.w3.org/1999/02/22-rdf-syntax-ns#"
   xmlns:svg="http://www.w3.org/2000/svg"
   xmlns="http://www.w3.org/2000/svg"
   xmlns:sodipodi="http://sodipodi.sourceforge.net/DTD/sodipodi-0.dtd"
   xmlns:inkscape="http://www.inkscape.org/namespaces/inkscape"
   width="512"
   height="512"
   viewBox="0 0 512.00001 512.00001"
   id="svg4564"
   version="1.1"
   inkscape:version="0.91 r13725"
   sodipodi:docname="semaphore_sound.svg">
  <defs
     id="defs4566" />
  <sodipodi:namedview
     id="base"
     pagecolor="#ffffff"
     bordercolor="#666666"
     borderopacity="1.0"
     inkscape:pageopacity="0.0"
     inkscape:pageshadow="2"
     inkscape:zoom="0.98994949"
     inkscape:cx="326.31046"
     inkscape:cy="284.68671"
     inkscape:document-units="px"
     inkscape:current-layer="g5041"
     showgrid="false"
     units="px"
     inkscape:window-width="1855"
     inkscape:window-height="1056"
     inkscape:window-x="65"
     inkscape:window-y="24"
     inkscape:window-maximized="1" />
  <metadata
     id="metadata4569">
    <rdf:RDF>
      <cc:Work
         rdf:about="">
        <dc:format>image/svg+xml</dc:format>
        <dc:type
           rdf:resource="http://purl.org/dc/dcmitype/StillImage" />
        <dc:title></dc:title>
      </cc:Work>
    </rdf:RDF>
  </metadata>
  <g
     inkscape:label="Capa 1"
     inkscape:groupmode="layer"
     id="layer1"
     transform="translate(0,-540.36216)">
    <g
       id="g4696"
       transform="matrix(0.50339407,0,0,0.50339407,64.054106,733.22728)">
      <g
         id="g4654">
        <g
           id="g4656">
          <path
             id="path4658"
             d="m 553.249,559.543 c 1.224,1.224 1.632,2.754 1.224,4.59 -0.405,1.836 -1.428,3.162 -3.06,3.979 -2.856,2.445 -5.916,2.04 -9.18,-1.227 L 317.629,271.291 257.041,259.663 c -5.712,-1.632 -9.996,-4.284 -12.852,-7.956 l -25.704,-32.436 0,27.54 0,65.484 66.096,75.276 c 1.632,1.224 2.754,2.754 3.367,4.59 0.609,1.836 1.122,3.771 1.527,5.812 l 31.215,142.599 c 1.632,7.344 0.201,14.178 -4.284,20.502 -4.488,6.324 -10.608,10.302 -18.36,11.934 -1.632,0.408 -3.672,0.612 -6.12,0.612 -6.936,0 -13.056,-2.04 -18.358,-6.12 -5.307,-4.08 -8.772,-9.384 -10.404,-15.912 L 233.788,414.5 179.932,353.912 156.064,438.368 c -0.816,2.04 -1.53,3.876 -2.142,5.508 -0.612,1.632 -1.53,3.264 -2.754,4.896 L 71.604,550.975 c -6.12,7.347 -13.872,11.019 -23.256,11.019 -6.528,0 -12.444,-1.836 -17.748,-5.508 -6.528,-4.488 -10.302,-10.509 -11.322,-18.057 -1.02,-7.548 0.714,-14.382 5.202,-20.502 l 76.5,-97.308 29.376,-105.876 c 0,-0.408 0.102,-0.714 0.306,-0.918 0.204,-0.204 0.306,-0.511 0.306,-0.918 l -0.612,-88.74 -15.912,21.42 -6.12,63.036 c -0.816,5.304 -3.264,9.792 -7.344,13.464 -4.08,3.672 -8.976,5.508 -14.688,5.508 -0.816,0 -1.428,-0.204 -1.836,-0.609 -6.12,-0.408 -11.22,-2.856 -15.3,-7.347 -4.08,-4.485 -5.712,-9.588 -4.896,-15.3 l 7.344,-67.932 c 0,-3.672 1.224,-7.14 3.672,-10.404 l 61.2,-82.62 c 4.488,-7.344 11.016,-12.954 19.584,-16.83 8.568,-3.876 17.544,-4.998 26.928,-3.366 6.12,1.224 11.424,3.468 15.912,6.732 4.08,2.04 6.936,4.08 8.568,6.12 l 66.708,83.844 64.873,12.852 c 6.12,1.224 10.813,4.182 14.076,8.874 3.263,4.692 4.488,9.894 3.672,15.606 -1.632,6.936 -5.916,11.832 -12.852,14.688 l 209.304,287.64 0,0 z M 172.584,112.171 c -7.752,-1.632 -14.688,-4.59 -20.808,-8.874 -6.12,-4.284 -11.322,-9.384 -15.606,-15.3 -4.284,-5.916 -7.242,-12.546 -8.874,-19.89 -1.632,-7.344 -1.632,-14.892 0,-22.644 1.632,-7.752 4.59,-14.688 8.874,-20.808 4.284,-6.12 9.486,-11.118 15.606,-14.994 6.12,-3.876 12.852,-6.63 20.196,-8.262 7.344,-1.632 14.892,-1.836 22.644,-0.612 7.752,1.632 14.79,4.59 21.114,8.874 6.324,4.284 11.526,9.384 15.606,15.3 4.08,5.916 6.936,12.546 8.568,19.89 1.632,7.344 1.632,14.892 0,22.644 -1.632,7.752 -4.59,14.688 -8.874,20.808 -4.284,6.12 -9.486,11.22 -15.606,15.3 -6.12,4.08 -12.852,6.936 -20.196,8.568 -7.344,1.632 -14.892,1.632 -22.644,0 z"
             style="fill:#010002"
             inkscape:connector-curvature="0" />
        </g>
      </g>
      <g
         id="g4660" />
      <g
         id="g4662" />
      <g
         id="g4664" />
      <g
         id="g4666" />
      <g
         id="g4668" />
      <g
         id="g4670" />
      <g
         id="g4672" />
      <g
         id="g4674" />
      <g
         id="g4676" />
      <g
         id="g4678" />
      <g
         id="g4680" />
      <g
         id="g4682" />
      <g
         id="g4684" />
      <g
         id="g4686" />
      <g
         id="g4688" />
    </g>
    <g
       id="g4881"
       transform="matrix(0.17417338,0,0,0.17417338,321.47221,598.50342)">
      <g
         id="g4839">
        <g
           id="g4841">
          <path
             id="path4843"
             d="m 247.111,610.652 -98.61,0 c -8.392,0 -15.165,7.066 -14.57,15.438 3.521,49.571 100.078,139.338 122.949,159.948 3.072,2.768 4.824,6.705 4.824,10.84 l 0,8.817 c 0,33.944 27.517,61.461 61.461,61.461 l 220.81,0 c 33.948,0 61.47,-27.521 61.47,-61.47 l 0,-8.808 c 0,-4.135 1.752,-8.072 4.824,-10.84 22.871,-20.61 119.427,-110.377 122.948,-159.948 0.596,-8.371 -6.178,-15.438 -14.569,-15.438 l -98.603,0 c -8.059,0 -14.592,-6.533 -14.592,-14.592 l 0,-66.103 c 0,-4.135 1.752,-8.072 4.824,-10.84 22.87,-20.61 119.424,-110.374 122.948,-159.939 0.595,-8.37 -6.179,-15.438 -14.57,-15.438 l -98.61,0 c -8.059,0 -14.592,-6.533 -14.592,-14.592 l 0,-66.102 c 0,-4.135 1.752,-8.072 4.824,-10.84 22.871,-20.61 119.427,-110.377 122.949,-159.948 0.595,-8.371 -6.179,-15.438 -14.57,-15.438 l -98.61,0 c -8.059,0 -14.592,-6.533 -14.592,-14.592 l 0,-0.768 C 605.454,27.518 577.938,0 543.992,0 L 323.164,0 C 289.22,0 261.702,27.517 261.702,61.462 l 0,0.768 c 0,8.059 -6.533,14.592 -14.592,14.592 l -98.61,0 c -8.392,0 -15.165,7.067 -14.57,15.438 3.521,49.571 100.078,139.338 122.949,159.948 3.072,2.768 4.824,6.705 4.824,10.84 l 0,66.102 c 0,8.059 -6.533,14.592 -14.592,14.592 l -98.61,0 c -8.392,0 -15.165,7.067 -14.57,15.438 3.524,49.566 100.078,139.329 122.948,159.939 3.072,2.768 4.824,6.705 4.824,10.84 l 0,66.103 c -10e-4,8.057 -6.534,14.59 -14.592,14.59 z M 434.103,74.082 c 53.213,0 96.35,43.137 96.35,96.35 0,53.213 -43.137,96.35 -96.35,96.35 -53.213,0 -96.351,-43.137 -96.351,-96.35 0,-53.213 43.138,-96.35 96.351,-96.35 z m 0,263.668 c 53.213,0 96.35,43.137 96.35,96.351 0,53.213 -43.137,96.35 -96.35,96.35 -53.213,0 -96.351,-43.137 -96.351,-96.351 0,-53.213 43.138,-96.35 96.351,-96.35 z m 0,263.658 c 53.213,0 96.35,43.137 96.35,96.35 0,53.213 -43.137,96.351 -96.35,96.351 -53.213,0 -96.351,-43.138 -96.351,-96.351 0,-53.213 43.138,-96.35 96.351,-96.35 z"
             inkscape:connector-curvature="0" />
        </g>
      </g>
      <g
         id="g4845" />
      <g
         id="g4847" />
      <g
         id="g4849" />
      <g
         id="g4851" />
      <g
         id="g4853" />
      <g
         id="g4855" />
      <g
         id="g4857" />
      <g
         id="g4859" />
      <g
         id="g4861" />
      <g
         id="g4863" />
      <g
         id="g4865" />
      <g
         id="g4867" />
      <g
         id="g4869" />
      <g
         id="g4871" />
      <g
         id="g4873" />
    </g>
    <g
       id="g5041"
       transform="translate(-58.82267,535.94071)">
      <g
         id="g4991"
         transform="matrix(-0.01847672,-0.21675763,0.21675763,-0.01847672,350.84352,303.17798)">
        <g
           id="g4993">
          <path
             id="path4999"
             d="m 239.352,487.01 c 2.18,11.34 13.236,18.381 23.893,15.809 3.309,-0.369 6.619,-2.203 10.665,-5.145 4.775,-4.783 6.61,-11.393 5.144,-19.117 -10.664,-56.232 6.148,-112.564 46.681,-152.541 40.337,-39.787 96.961,-56.953 152.91,-45.943 11.323,2.227 22.105,-5.051 24.254,-15.809 2.267,-11.315 -5.073,-21.988 -15.801,-24.254 -34.487,-7.292 -68.684,-5.348 -102.552,4.775 -33.766,10.092 -63.226,27.571 -88.217,52.562 -24.63,24.629 -42.274,54.035 -52.193,87.479 -9.928,33.453 -11.426,67.57 -4.784,102.184 z"
             inkscape:connector-curvature="0" />
          <path
             id="path5001"
             d="m 121,511.271 c 2.141,11.34 12.86,18.373 24.262,15.809 3.301,-0.744 6.61,-2.572 9.551,-5.512 5.881,-4.785 7.904,-10.986 6.25,-18.75 -10.107,-47.379 -7.888,-94.514 6.25,-141.148 14.169,-46.734 38.502,-87.205 72.777,-121.66 34.095,-34.275 74.251,-58.075 120.932,-72.048 46.681,-13.966 94.177,-16.584 141.877,-6.979 10.751,2.164 22.059,-4.415 23.894,-15.809 1.843,-11.394 -5.082,-21.604 -16.538,-23.894 -54.711,-10.938 -108.433,-8.084 -160.994,7.724 -52.562,15.801 -98.506,43.003 -137.839,82.336 -39.333,39.325 -66.849,85.284 -82.705,138.567 -15.755,52.948 -18.076,106.544 -7.717,161.364 z"
             inkscape:connector-curvature="0" />
          <path
             id="path5003"
             d="m 8.889,533.691 c 2.219,11.33 12.829,18.215 23.524,15.809 4.007,-0.902 7.716,-2.572 10.288,-5.145 4.775,-4.783 6.987,-11.395 6.25,-19.117 C 35.354,458.709 38.342,393.295 57.773,328.588 77.298,263.55 111.072,207.295 158.858,159.508 207.005,111.361 263.597,77.493 328.305,58.062 393.351,38.529 458.709,35.675 525.324,48.872 536.647,51.114 547.429,43.822 549.578,33.063 551.845,21.748 544.52,11.373 533.777,9.178 459.973,-5.909 387.486,-2.215 316.175,19.098 244.872,40.419 182.563,77.361 130.19,130.102 77.44,183.221 40.334,245.475 18.817,316.833 -2.669,388.09 -5.438,460.475 8.889,533.691 Z"
             inkscape:connector-curvature="0" />
        </g>
      </g>
      <g
         id="g5005" />
      <g
         id="g5007" />
      <g
         id="g5009" />
      <g
         id="g5011" />
      <g
         id="g5013" />
      <g
         id="g5015" />
      <g
         id="g5017" />
      <g
         id="g5019" />
      <g
         id="g5021" />
      <g
         id="g5023" />
      <g
         id="g5025" />
      <g
         id="g5027" />
      <g
         id="g5029" />
      <g
         id="g5031" />
      <g
         id="g5033" />
    </g>
  </g>
</svg>
