<?xml version="1.0" encoding="UTF-8" standalone="no"?>
<!-- Created with Inkscape (http://www.inkscape.org/) -->

<svg
   xmlns:dc="http://purl.org/dc/elements/1.1/"
   xmlns:cc="http://creativecommons.org/ns#"
   xmlns:rdf="http://www.w3.org/1999/02/22-rdf-syntax-ns#"
   xmlns:svg="http://www.w3.org/2000/svg"
   xmlns="http://www.w3.org/2000/svg"
   xmlns:sodipodi="http://sodipodi.sourceforge.net/DTD/sodipodi-0.dtd"
   xmlns:inkscape="http://www.inkscape.org/namespaces/inkscape"
   width="512"
   height="512"
   viewBox="0 0 512.00001 512.00001"
   id="svg4564"
   version="1.1"
   inkscape:version="0.91 r13725"
   sodipodi:docname="ramp.svg">
  <defs
     id="defs4566" />
  <sodipodi:namedview
     id="base"
     pagecolor="#ffffff"
     bordercolor="#666666"
     borderopacity="1.0"
     inkscape:pageopacity="0.0"
     inkscape:pageshadow="2"
     inkscape:zoom="0.98994949"
     inkscape:cx="153.57437"
     inkscape:cy="284.68671"
     inkscape:document-units="px"
     inkscape:current-layer="layer1"
     showgrid="false"
     units="px"
     inkscape:window-width="1855"
     inkscape:window-height="1056"
     inkscape:window-x="65"
     inkscape:window-y="24"
     inkscape:window-maximized="1" />
  <metadata
     id="metadata4569">
    <rdf:RDF>
      <cc:Work
         rdf:about="">
        <dc:format>image/svg+xml</dc:format>
        <dc:type
           rdf:resource="http://purl.org/dc/dcmitype/StillImage" />
        <dc:title></dc:title>
      </cc:Work>
    </rdf:RDF>
  </metadata>
  <g
     inkscape:label="Capa 1"
     inkscape:groupmode="layer"
     id="layer1"
     transform="translate(0,-540.36216)">
    <g
       id="g4551"
       transform="matrix(0.39595907,-0.14655649,0.14655649,0.39595907,47.83935,725.31493)">
      <g
         id="g4509">
        <g
           id="g4511">
          <path
             id="path4513"
             d="m 174.727,79.56 c -3.06,-6.936 -4.59,-14.484 -4.59,-22.644 0,-7.752 1.53,-15.096 4.59,-22.032 3.06,-6.936 7.14,-12.954 12.24,-18.054 5.1,-5.1 11.118,-9.18 18.054,-12.24 C 211.957,1.53 219.505,0 227.665,0 c 7.752,0 15.096,1.53 22.032,4.59 6.936,3.06 13.056,7.14 18.36,12.24 5.304,5.1 9.384,11.118 12.24,18.054 2.856,6.936 4.284,14.28 4.284,22.032 0,15.912 -5.508,29.478 -16.524,40.698 -11.016,11.22 -24.48,16.83 -40.392,16.83 -8.16,0 -15.708,-1.53 -22.644,-4.59 -6.936,-3.06 -12.954,-7.14 -18.054,-12.24 -5.1,-5.1 -9.18,-11.118 -12.24,-18.054 z m 222.462,313.344 c -6.936,-1.633 -13.157,-0.611 -18.665,3.061 -5.508,3.672 -9.078,8.771 -10.71,15.301 -1.224,6.119 -3.06,12.035 -5.508,17.748 -5.304,14.279 -12.75,27.336 -22.338,39.168 -9.588,11.832 -20.605,22.033 -33.048,30.6 -12.444,8.568 -26.112,15.199 -41.004,19.893 -14.892,4.689 -30.294,7.037 -46.206,7.037 -20.808,0 -40.392,-3.875 -58.752,-11.627 -18.36,-7.754 -34.374,-18.156 -48.042,-31.213 C 99.248,469.813 88.436,454.413 80.48,436.667 72.524,418.919 68.546,399.843 68.546,379.442 c 0,-15.096 2.346,-29.682 7.038,-43.758 4.692,-14.076 11.322,-27.133 19.89,-39.168 8.568,-12.037 18.768,-22.645 30.6,-31.825 11.832,-9.18 25.092,-16.626 39.78,-22.338 6.528,-2.04 11.22,-6.12 14.076,-12.24 2.856,-6.12 3.06,-12.24 0.612,-18.36 -2.448,-6.12 -6.834,-10.506 -13.158,-13.158 -6.324,-2.652 -12.75,-2.958 -19.278,-0.918 -19.176,7.344 -36.72,17.136 -52.632,29.376 -15.912,12.24 -29.58,26.316 -41.004,42.228 -11.424,15.912 -20.196,33.25 -26.316,52.02 -6.12,18.767 -9.18,38.146 -9.18,58.14 0,26.93 5.304,52.121 15.912,75.582 10.608,23.459 24.99,43.961 43.146,61.506 18.156,17.543 39.372,31.416 63.648,41.615 24.276,10.201 50.286,15.301 78.03,15.301 21.216,0 41.616,-3.061 61.2,-9.18 19.583,-6.121 37.739,-14.791 54.468,-26.01 16.727,-11.219 31.416,-24.787 44.062,-40.699 12.648,-15.912 22.44,-33.455 29.376,-52.631 2.857,-6.939 5.304,-14.689 7.344,-23.256 1.634,-6.938 0.612,-13.059 -3.06,-18.361 -3.672,-5.3 -8.974,-8.771 -15.911,-10.404 z m 154.223,93.637 -93.636,-162.793 c -3.264,-6.938 -8.161,-12.445 -14.688,-16.525 -6.528,-4.08 -13.872,-6.119 -22.032,-6.119 l -104.04,0 -12.24,-59.976 81.398,0 c 4.895,0.408 9.588,-0.408 14.076,-2.448 4.485,-2.04 7.953,-5.304 10.401,-9.792 3.267,-5.712 3.979,-11.832 2.145,-18.36 -1.836,-6.528 -5.815,-11.424 -11.937,-14.688 -3.264,-2.04 -6.936,-3.06 -11.016,-3.06 l -95.473,0 -5.507,-28.152 c 0,-0.816 -0.103,-1.326 -0.307,-1.53 -0.204,-0.204 -0.307,-0.714 -0.307,-1.53 l -0.611,-1.836 c -2.856,-9.384 -8.262,-17.136 -16.218,-23.256 -7.956,-6.12 -17.238,-9.18 -27.846,-9.18 -13.056,0 -24.072,4.386 -33.048,13.158 -8.976,8.772 -13.464,19.278 -13.464,31.518 0,2.04 0.204,3.672 0.612,4.896 l -0.612,0 33.66,162.18 c 1.632,9.385 6.12,17.035 13.464,22.951 7.344,5.916 15.912,8.873 25.704,8.873 2.856,0 5.1,-0.203 6.732,-0.611 l 138.925,0 80.784,140.76 c 2.446,5.303 6.118,9.588 11.016,12.854 4.896,3.264 10.609,4.896 17.136,4.896 8.16,0 15.198,-2.854 21.114,-8.568 5.916,-5.713 8.874,-12.646 8.874,-20.809 0.003,-4.492 -1.018,-8.773 -3.059,-12.853 z"
             style="fill:#010002"
             inkscape:connector-curvature="0" />
        </g>
      </g>
      <g
         id="g4515" />
      <g
         id="g4517" />
      <g
         id="g4519" />
      <g
         id="g4521" />
      <g
         id="g4523" />
      <g
         id="g4525" />
      <g
         id="g4527" />
      <g
         id="g4529" />
      <g
         id="g4531" />
      <g
         id="g4533" />
      <g
         id="g4535" />
      <g
         id="g4537" />
      <g
         id="g4539" />
      <g
         id="g4541" />
      <g
         id="g4543" />
    </g>
    <path
       style="fill:#000000;fill-opacity:1;stroke:none"
       d="m 437.39604,815.9865 0,203.0407 -367.695508,0 z"
       id="rect4579"
       inkscape:connector-curvature="0"
       sodipodi:nodetypes="cccc" />
  </g>
</svg>
